<svg id="Calque_1" data-name="Calque 1" xmlns="http://www.w3.org/2000/svg" viewBox="0 0 200 120"><title>1Plan de travail 1</title><path d="M60.31,28.12c-4.11-4.92-14.84-12.43-26-5.64L15.88,33.71a17.26,17.26,0,0,0-2.21,1.51,17.85,17.85,0,0,0-2.86,25.07l4.68,5.92a.58.58,0,0,1-.16.85L6.45,72.5A2.4,2.4,0,0,0,5.83,76l13,16.32.54.65a17.83,17.83,0,0,0,24.43,3.33l.16-.08,18.2-11.07c.33-.19,8.09-4.77,9.56-12.58.85-4.46-.5-9-4-13.37l-5.26-6.61a.58.58,0,0,1,.15-.86l8.82-5.37A2.39,2.39,0,0,0,72,42.85ZM14.56,57.32A13.06,13.06,0,0,1,16.65,39c.35-.28.72-.54,1.1-.79h0l.53-.32a13,13,0,0,1,17,3.5l2.33,2.93a.58.58,0,0,1-.15.86L25.28,52.52l-.06,0c-.2.13-.39.27-.58.42a6.74,6.74,0,0,0-1.08,9.47l7.75,9.75A1.94,1.94,0,0,1,31,75a2,2,0,0,1-2.76-.32ZM30.36,57l9.77,12.39-3.82,2.32a6.7,6.7,0,0,0-1.25-2.52l-7.75-9.75A1.93,1.93,0,0,1,26.89,58a2,2,0,0,1,3.47-1Zm16,24.85A13.07,13.07,0,0,1,23.08,90L11.67,75.68a.58.58,0,0,1,.15-.86l6.62-4a.59.59,0,0,1,.76.14l4.55,5.78.76.93a6.75,6.75,0,0,0,8.58,1.67l.15-.08,9.87-6,0,.05A14,14,0,0,1,46.39,81.88ZM64,62.21c2.59,3.26,3.62,6.45,3.06,9.48C66,77.34,59.81,81,59.71,81.06l-9.18,5.58a19.09,19.09,0,0,0,.53-2.73A17.72,17.72,0,0,0,47.3,70.79L34.11,54.05a6.74,6.74,0,0,0-.78-.82l7.22-4.39a.58.58,0,0,1,.76.13l6.82,8.57a3,3,0,0,0,3.87.68l5.48-3.34a.57.57,0,0,1,.75.14Zm-7.1-12.55L51.31,53a.59.59,0,0,1-.76-.14L38.75,38.07a17.75,17.75,0,0,0-9-6,.57.57,0,0,1-.16-1l7.26-4.42c10.27-6.26,19.23,3.92,19.81,4.6l9.57,12a.57.57,0,0,1-.15.85l-8.47,5.17Z"/><path d="M103.54,64a9.23,9.23,0,0,0-2.22-1.7A22.41,22.41,0,0,0,98.8,61c-.85-.35-1.69-.66-2.52-1a17.38,17.38,0,0,1-2.23-.95A5.39,5.39,0,0,1,92.48,58a2.35,2.35,0,0,1-.6-1.64,2.78,2.78,0,0,1,.25-1.18,2.59,2.59,0,0,1,.76-1,3.24,3.24,0,0,1,1.29-.63A6.88,6.88,0,0,1,96,53.34a10,10,0,0,1,2.69.33,16.19,16.19,0,0,1,2.08.71,13.52,13.52,0,0,1,1.5.71,2.2,2.2,0,0,0,.88.33.94.94,0,0,0,.45-.11.8.8,0,0,0,.29-.43,3.21,3.21,0,0,0,.16-.85c0-.36,0-.82,0-1.39s0-.88,0-1.21-.07-.6-.11-.82a1.82,1.82,0,0,0-.19-.57,1.48,1.48,0,0,0-.42-.47,5.27,5.27,0,0,0-1-.57,10.92,10.92,0,0,0-1.7-.61,19.14,19.14,0,0,0-2.25-.48,18,18,0,0,0-2.57-.18,16,16,0,0,0-4.77.66,10.62,10.62,0,0,0-3.61,1.86,8,8,0,0,0-2.27,2.88,8.59,8.59,0,0,0-.79,3.7A8.94,8.94,0,0,0,85,60.24a7.79,7.79,0,0,0,1.55,2.42,9.2,9.2,0,0,0,2.17,1.71A24,24,0,0,0,91.2,65.6c.85.35,1.68.68,2.49,1a18,18,0,0,1,2.18,1,5.11,5.11,0,0,1,1.54,1.18A2.39,2.39,0,0,1,98,70.32a3.19,3.19,0,0,1-.31,1.45,2.65,2.65,0,0,1-.93,1,4.46,4.46,0,0,1-1.45.63,7.37,7.37,0,0,1-1.91.22,10.17,10.17,0,0,1-3-.41A16.9,16.9,0,0,1,88,72.37c-.67-.31-1.23-.6-1.68-.86a2.34,2.34,0,0,0-1-.4,1,1,0,0,0-.47.11.87.87,0,0,0-.32.44,4.5,4.5,0,0,0-.19.89A14,14,0,0,0,84.25,74a8.54,8.54,0,0,0,.19,2.1,2.26,2.26,0,0,0,.54,1,5,5,0,0,0,1.1.71A13.11,13.11,0,0,0,88,78.6a18.79,18.79,0,0,0,2.57.6,19.44,19.44,0,0,0,3,.23,18.25,18.25,0,0,0,4.85-.61A11.36,11.36,0,0,0,102.28,77a8.42,8.42,0,0,0,2.54-3,9.47,9.47,0,0,0,.9-4.23,8.38,8.38,0,0,0-.6-3.32A7.81,7.81,0,0,0,103.54,64Z"/><path d="M114.37,35.46c-1.79,0-3,.31-3.64.93a4.57,4.57,0,0,0-1,3.33,4.31,4.31,0,0,0,.93,3.18c.62.59,1.82.88,3.61.88s3-.3,3.62-.91a4.45,4.45,0,0,0,1-3.31,4.34,4.34,0,0,0-1-3.2C117.33,35.76,116.13,35.46,114.37,35.46Z"/><path d="M117.47,48.62a5.56,5.56,0,0,0-1.21-.26,14.54,14.54,0,0,0-1.92-.1,14.7,14.7,0,0,0-1.93.1,5.56,5.56,0,0,0-1.21.26,1.57,1.57,0,0,0-.64.41.86.86,0,0,0-.19.56V77.64a.84.84,0,0,0,.19.55,1.38,1.38,0,0,0,.64.39,5.14,5.14,0,0,0,1.21.24c.51.05,1.15.08,1.93.08s1.42,0,1.92-.08a5.14,5.14,0,0,0,1.21-.24,1.42,1.42,0,0,0,.65-.39.84.84,0,0,0,.19-.55v-28a.86.86,0,0,0-.19-.56A1.62,1.62,0,0,0,117.47,48.62Z"/><path d="M149.53,48.45h-8.92a16.16,16.16,0,0,0-2.26-.44,18.77,18.77,0,0,0-2.53-.16,15,15,0,0,0-4.73.71,10.68,10.68,0,0,0-3.69,2A9.32,9.32,0,0,0,125,53.89a10.62,10.62,0,0,0-.87,4.39,9.82,9.82,0,0,0,.66,3.85,8.49,8.49,0,0,0,1.77,2.65,11.1,11.1,0,0,0-2.21,2.75,6.93,6.93,0,0,0-.85,3.39,5.23,5.23,0,0,0,2.84,4.7,13.66,13.66,0,0,0-1.73,1.51,9.34,9.34,0,0,0-1.28,1.66,7.26,7.26,0,0,0-.79,1.81,7.17,7.17,0,0,0-.27,2,6.12,6.12,0,0,0,3.11,5.49,13.3,13.3,0,0,0,4.16,1.57,28.34,28.34,0,0,0,6.13.57,23.35,23.35,0,0,0,6.44-.79,14.16,14.16,0,0,0,4.59-2.14,8.85,8.85,0,0,0,2.74-3.2,8.71,8.71,0,0,0,.91-3.92,8.09,8.09,0,0,0-.67-3.38,7.09,7.09,0,0,0-2-2.53,9,9,0,0,0-3.15-1.64,16.39,16.39,0,0,0-4.27-.68l-6.84-.25A4,4,0,0,1,131.2,71a1.76,1.76,0,0,1-.81-1.49,2.61,2.61,0,0,1,.3-1.26,4.58,4.58,0,0,1,.68-1,6.61,6.61,0,0,0,1.89.77,9.94,9.94,0,0,0,2.59.33,15.68,15.68,0,0,0,4.8-.68,10.38,10.38,0,0,0,3.69-2,8.72,8.72,0,0,0,2.35-3.22,10.87,10.87,0,0,0,.82-4.36,6.63,6.63,0,0,0-.3-2,4.5,4.5,0,0,0-1-1.72h3.31c.33,0,.62-.24.85-.73a5.47,5.47,0,0,0,.34-2.23,5.93,5.93,0,0,0-.33-2.34C150.17,48.68,149.88,48.45,149.53,48.45ZM130.41,79.62a6.26,6.26,0,0,1,.79-1.05,7.82,7.82,0,0,1,1.31-1.16l5.64.16a6.06,6.06,0,0,1,3.12.82,2.48,2.48,0,0,1,1.13,2.18,4,4,0,0,1-.31,1.56A3.51,3.51,0,0,1,141,83.47a5.86,5.86,0,0,1-2,1,10.91,10.91,0,0,1-3,.36,10,10,0,0,1-4.5-.82,2.58,2.58,0,0,1-1.59-2.39,4.46,4.46,0,0,1,.1-1A3,3,0,0,1,130.41,79.62Zm9.83-19.68a4.47,4.47,0,0,1-.88,1.53,4.09,4.09,0,0,1-1.46,1,5.32,5.32,0,0,1-2.08.38,4.76,4.76,0,0,1-3.5-1.25,4.55,4.55,0,0,1-1.26-3.39,6.14,6.14,0,0,1,.28-1.87,4.43,4.43,0,0,1,.87-1.58,4.07,4.07,0,0,1,1.46-1.07,5,5,0,0,1,2.05-.39,4.38,4.38,0,0,1,4.82,4.79A5.5,5.5,0,0,1,140.24,59.94Z"/><path d="M162,35.83a5.09,5.09,0,0,0-1.21-.27,16.68,16.68,0,0,0-1.93-.1,16.49,16.49,0,0,0-1.92.1,4.87,4.87,0,0,0-1.21.27,1.36,1.36,0,0,0-.65.42,1,1,0,0,0-.19.57V77.64a.89.89,0,0,0,.19.55,1.42,1.42,0,0,0,.65.39,5,5,0,0,0,1.21.24c.5.05,1.15.08,1.92.08s1.42,0,1.93-.08a5.25,5.25,0,0,0,1.21-.24,1.47,1.47,0,0,0,.65-.39.89.89,0,0,0,.18-.55V36.82a1,1,0,0,0-.18-.57A1.41,1.41,0,0,0,162,35.83Z"/><path d="M194.23,56a11.58,11.58,0,0,0-2.36-4.36,10.81,10.81,0,0,0-4.11-2.88,15.63,15.63,0,0,0-6-1,15.43,15.43,0,0,0-6,1.1,12.1,12.1,0,0,0-4.53,3.2,14.19,14.19,0,0,0-2.83,5.1,21.89,21.89,0,0,0-1,6.76,22.86,22.86,0,0,0,.93,6.88,11.94,11.94,0,0,0,2.82,4.85,11.71,11.71,0,0,0,4.71,2.87,20.7,20.7,0,0,0,6.57.94,26.78,26.78,0,0,0,3.91-.27,28.05,28.05,0,0,0,3.25-.63,16.62,16.62,0,0,0,2.33-.74,3.75,3.75,0,0,0,1.12-.6,1.73,1.73,0,0,0,.33-.45,2,2,0,0,0,.19-.59c0-.23.07-.5.1-.83s0-.72,0-1.18,0-1,0-1.31a2.61,2.61,0,0,0-.17-.8.89.89,0,0,0-.32-.4,1,1,0,0,0-.47-.11,3.49,3.49,0,0,0-1.23.3c-.51.2-1.14.42-1.91.66a24.46,24.46,0,0,1-2.73.66,19.64,19.64,0,0,1-3.65.3,10.13,10.13,0,0,1-3.51-.53,6,6,0,0,1-2.4-1.56,6.27,6.27,0,0,1-1.36-2.49,11.86,11.86,0,0,1-.42-3.26h17.11a2.28,2.28,0,0,0,1.78-.7,3,3,0,0,0,.65-2.14V61.5A18.88,18.88,0,0,0,194.23,56Zm-18.78,4.48a10.86,10.86,0,0,1,.46-2.79A7,7,0,0,1,177,55.43a5.35,5.35,0,0,1,1.86-1.53,5.86,5.86,0,0,1,2.63-.56,5.18,5.18,0,0,1,4.43,1.9,8.15,8.15,0,0,1,1.34,5.25Z"/></svg>